<?xml version="1.0" standalone="no"?><!DOCTYPE svg PUBLIC "-//W3C//DTD SVG 1.1//EN" "http://www.w3.org/Graphics/SVG/1.1/DTD/svg11.dtd"><svg t="1650297861786" class="icon" viewBox="0 0 1024 1024" version="1.1" xmlns="http://www.w3.org/2000/svg" p-id="14972" width="16" height="16" xmlns:xlink="http://www.w3.org/1999/xlink"><defs><style type="text/css"></style></defs><path d="M940.4 290.5c-16.3-6.8-35.1 0.8-41.9 17.1C830 470.6 678.3 576 512 576S194 470.6 125.5 307.6c-6.8-16.3-25.6-23.9-41.9-17.1-16.3 6.8-23.9 25.6-17.1 41.9 37.9 90.2 98.9 166.7 176.3 221.4 14.6 10.3 29.7 19.8 45.2 28.3 0 0.6-0.1 1.2-0.1 1.9v88c0 17.7 14.3 32 32 32s32-14.3 32-32v-60.6c41.1 15.2 84.1 24.5 128 27.5V736c0 17.7 14.3 32 32 32s32-14.3 32-32v-97.1c43.9-3 86.9-12.3 128-27.5V672c0 17.7 14.3 32 32 32s32-14.3 32-32v-88c0-0.6 0-1.3-0.1-1.9 15.5-8.5 30.6-18 45.2-28.3 77.5-54.7 138.5-131.3 176.3-221.4 7-16.3-0.6-35.1-16.9-41.9z" p-id="14973"></path></svg>